<?xml version="1.0" encoding="UTF-8"?><svg id="Layer_2" xmlns="http://www.w3.org/2000/svg" width="253.71" height="255.747" viewBox="0 0 253.71 255.747"><g id="Layer_1-2"><g id="hPO8HW.tif"><path d="M141.772,108.038c3.367-7.77,9.629-11.748,16.967-10.549,8.105,1.323,11.793,7.032,12.212,19.535,1.41-4.141,3.317-7.252,6.567-9.358,3.307-2.143,6.983-2.989,10.74-2.066,10.335,2.539,12.523,10.289,11.81,19.79.988-.575.978-1.389,1.268-2.016,2.89-6.234,9.712-9.727,16.272-8.308,6.73,1.456,11.575,7.173,11.597,14.062.066,20.217.016,40.434.058,60.651.003,1.281-.562,2.209-1.19,3.185-6.786,10.562-13.551,21.138-20.377,31.674-.942,1.453-1.418,2.882-1.406,4.638.052,7.987-.073,15.974,0,23.96.017,1.879-.378,2.518-2.421,2.512-26.377-.076-52.754-.073-79.131-.005-2.037.005-2.69-.449-2.64-2.584.184-7.817.101-15.641.249-23.459.037-1.952-.482-3.447-1.711-4.967-10.043-12.417-19.999-24.904-30.022-37.338-.887-1.1-1.303-2.179-1.296-3.604.053-9.817-.023-19.635.042-29.452.085-12.789,8.39-22.734,20.998-25.077,1.823-.339,2.18-1.072,2.176-2.762-.052-24.128-.014-48.255-.051-72.383-.008-5.514,1.702-10.183,6.369-13.353,4.805-3.265,9.966-3.603,15.112-.873,5.256,2.788,7.757,7.405,7.783,13.272.064,14.143.022,28.287.022,42.431,0,4.148,0,8.297,0,12.445Z" fill="#009fb7" stroke-width="0"/><path d="M156.228,72.105c0-6.751.064-13.062-.013-19.372-.164-13.446-9.175-24.962-21.939-28.15-18.493-4.618-35.956,9.07-36.214,28.436-.084,6.311-.013,12.624-.013,19.075-9.008-6.756-15.442-22.967-12.448-37.776C89.407,15.482,104.577,1.833,123.576.157c18.204-1.606,35.707,9.257,42.557,26.418,6.881,17.238,1.023,35.814-9.905,45.53Z" fill="#009fb7" stroke-width="0"/><path d="M28.154,36.977c3.419,3.414,6.283,6.4,9.298,9.225,1.302,1.22,1.198,1.941-.05,3.102-2.677,2.492-5.25,5.101-7.774,7.75-.984,1.033-1.582.99-2.574-.01C18.327,48.245,9.562,39.483.765,30.754c-.989-.981-1.044-1.555-.019-2.571C9.548,19.46,18.31,10.695,27.038,1.897c.988-.996,1.572-1.06,2.565-.016,2.636,2.771,5.338,5.484,8.118,8.11,1.105,1.044.862,1.642-.104,2.555-3.079,2.912-6.083,5.904-9.16,8.908.974.926,1.928.542,2.77.544,12.227.031,24.455.059,36.682-.02,1.816-.012,2.497.386,2.41,2.321-.157,3.486-.13,6.987-.009,10.476.061,1.756-.52,2.246-2.256,2.236-12.144-.068-24.288-.036-36.432-.036-.908,0-1.815,0-3.469,0Z" fill="#009fb7" stroke-width="0"/><path d="M224.835,36.977h-5.93c-10.982,0-21.964-.059-32.945.051-2.144.022-2.685-.655-2.587-2.678.158-3.237.169-6.493-.003-9.728-.109-2.056.488-2.667,2.591-2.65,12.062.099,24.126.048,36.189.048.904,0,1.808,0,3.443,0-2.897-2.897-5.371-5.373-7.846-7.848q-2.951-2.951-.04-5.861c2.059-2.059,4.165-4.073,6.153-6.198,1.036-1.107,1.692-1.373,2.936-.112,8.646,8.765,17.369,17.454,26.106,26.13.947.941,1.162,1.52.095,2.577-8.864,8.783-17.685,17.609-26.474,26.468-.976.984-1.536.805-2.394-.081-2.661-2.749-5.349-5.476-8.126-8.108-1.056-1.001-.979-1.586.036-2.541,3.082-2.9,6.071-5.899,9.096-8.86l-.3-.608Z" fill="#009fb7" stroke-width="0"/></g></g></svg>