<?xml version="1.0" encoding="UTF-8"?><svg id="Layer_2" xmlns="http://www.w3.org/2000/svg" width="144.893" height="252.805" viewBox="0 0 144.893 252.805"><g id="Layer_1-2"><g id="e7mql9"><path d="M101.608,119.163c-1.411.246-2.488.533-3.579.605-2.382.156-4.762.401-7.159.247-1.597-.102-1.803.196-1.459,1.778.059.269.027.557.071.831.353,2.194.066,4.403-.008,6.588-.055,1.611.765,2.852,1.057,4.289.047.23.312.516.241.654-.982,1.898.661,4.062-.617,5.919-.112.163-.146.385-.004.563,1.277,1.604,1.025,3.429.718,5.239-.162.958-.247,1.836.145,2.802.453,1.114.137,2.371.284,3.56.122.985.067,1.986.518,2.924.236.489.073,1.004-.479,1.168-.596.177-.812-.25-.968-.773-.757-2.52-1.258-5.158-1.27-7.712-.009-1.828-.364-3.65-.313-5.503.046-1.663.201-3.546-.556-5.335-.701-1.656-.305-3.62-.401-5.448-.112-2.128.251-4.253-.339-6.394-.339-1.23.086-2.612-.213-3.925-.167-.733-.412-1.124-1.256-1.06-2.499.189-5.01-.407-7.515.139-.56.122-1.15-.24-1.765-.234-.784.008-1.135.222-1.152,1.093-.035,1.809.335,3.575.479,5.362.289,3.566.17,7.153.569,10.706.45,4,.418,8.043,1.106,12.019.048.277-.05.748.467.648.472-.09.806.074.676.508-.186.622-.294,1.395-1.035,1.65-.513.177-1.103-.091-1.15-.583-.169-1.791-1.239-3.4-1.182-5.174.043-1.311.071-2.548-.186-3.863-.327-1.669-.253-3.417-.342-5.132-.285-5.54-.411-11.09-1.109-16.602-.057-.45-.117-.756-.682-.743-1.707.04-3.416.05-5.124.055-.545.002-1.273.111-1.262-.703.011-.827.725-1.075,1.387-.934,1.467.312,2.932.025,4.395.114.809.049,1.149-.292,1.065-1.248-.357-4.095-.638-8.197-.88-12.3-.124-2.109-.099-4.227-.165-6.34-.023-.742.372-1.195.938-1.553.32-.203.687-.303,1.003-.028.349.304.165.619-.029.957-.645,1.121-.21,2.344-.183,3.494.09,3.75.371,7.495.549,11.244.078,1.634.518,3.234.405,4.886-.045.663.263.982,1.021.968,1.084-.02,2.088-.161,3.142-.512,1.443-.48,3.011-.114,4.525-.089.558.009,1.115.1,1.673.133,1.387.083,1.37.062,1.17-1.354-.099-.704-.034-1.431-.049-2.147-.038-1.774-.849-3.414-.894-5.187-.005-.195-.117-.473-.026-.57.939-1.012.203-1.999-.003-2.996-.299-1.445-.337-2.911-.431-4.38-.109-1.701-.576-3.37-.676-5.085-.054-.916-.198-1.827-.302-2.74-.056-.493-.008-.966.329-1.358.285-.331.575-.746,1.092-.521.469.204.273.642.307,1.035.18,2.058.369,4.119.686,6.158.171,1.097.617,2.143.272,3.289-.139.463.036.932.143,1.407.494,2.207.816,4.428.998,6.698.097,1.214-.427,2.618.522,3.773.268.326.236.908.026,1.276-.503.884.055,1.714.046,2.566-.008.711,1.17.925,1.788.307.477-.477.871-.676,1.405-.132.509.518.991.098,1.414-.128.636-.339,1.143-.524,1.86-.042.671.451,1.558.144,2.347.169,1.562.05,2.522.236,3.921,1.006Z" fill="#fff" stroke-width="0"/><path d="M61.422,206.426c-.144,2.09.457,4.481.688,6.903.318,3.339.229,6.695.579,10.027.021.198,0,.401.022.599.199,1.826.239,1.827,1.948,1.319.646-.192,1.302-.281,1.869-.712.288-.219.72-.208.932.197.186.355-.047.639-.328.802-1.029.596-1.924,1.452-3.15,1.669-.955.169-1.27.546-1.264,1.674.017,3.055-.017,6.117-.137,9.178-.114,2.898-.092,5.808-.327,8.704-.151,1.86-.642,3.662-1.098,5.466-.07.277-.174.579-.524.553-.397-.029-.592-.321-.761-.671-.816-1.689-1.143-3.538-1.763-5.282-.795-2.235-1.084-4.59-2.305-6.764-.98-1.743-1.882-3.534-3.046-5.175-.678-.956-1.643-1.628-2.474-2.432-.947-.916-.901-1.59.356-1.767,3.692-.521,6.73-2.615,10.083-3.944.719-.285.969-.686.908-1.445-.175-2.175-.22-4.347-.546-6.527-.226-1.512-.245-3.15-.154-4.734.025-.434.101-.983-.401-1.136-.383-.116-.55.397-.731.67-.731,1.108-1.6,2.055-2.659,2.877-.887.689-1.708.901-2.751.448-2.5-1.086-4.106-2.934-4.941-5.514-.314-.972-.562-1.993-1.309-2.771-.106-.111-.226-.274-.226-.413.005-2.335-1.592-4.404-1.107-6.831.127-.636-.434-1.322-.011-1.98.186-.29.356-.7.792-.617.349.066.483.425.522.739.059.472.097.957.056,1.428-.198,2.238.76,4.307.92,6.492.019.266.126.635.46.612.468-.032.42-.528.318-.747-.5-1.083-.258-2.268-.531-3.362-.202-.81-.222-1.59-.039-2.361.389-1.644.312-3.33.54-4.988.178-1.286.76-2.353,1.576-3.303,1.241-1.445,3.339-1.539,5.198-.132,1.247.944,1.945,2.382,2.88,3.604,1.392,1.819.992,4.054,1.906,5.957.468.973.098,2.207.03,3.69ZM59.932,207.359c-.134-1.581-.183-3.022-.39-4.441-.475-3.257-1.122-6.443-3.97-8.639-1.26-.971-2.555-.904-3.484.39-1.007,1.403-1.186,3.083-1.066,4.696.173,2.316-.13,4.609-.053,6.918.049,1.483.219,3.009-.235,4.49-.071.232.027.587.171.801.756,1.116,1.355,2.346,2.352,3.29,1.021.966,1.929,1.088,3.147.367,1.348-.798,2.373-1.889,2.851-3.41.471-1.497.455-3.07.676-4.462ZM60.332,249.149c.765-1.245.39-2.464.5-3.617.166-1.747.47-3.477.509-5.241.079-3.576.222-7.151.365-10.725.046-1.145-.217-1.338-1.262-.962-2.724.982-5.129,2.73-8.032,3.297-.64.125-.348.583-.005.87,1.37,1.148,2.262,2.681,3.142,4.172,2.215,3.755,3.728,7.812,4.784,12.205Z" fill="#fff" stroke-width="0"/><path d="M35.484,105.697c6.222,0,12.445.005,18.667-.007.637-.001,1.168.119,1.172.855.003.604-.498.609-.963.611-4.232.01-8.464.041-12.695.039-3.223-.002-6.449.008-9.669-.097-.924-.03-1.187.245-1.016,1.051.626,2.939.475,5.958.952,8.915.221,1.37.209,2.777.309,4.166.122,1.696.328,3.39.351,5.087.015,1.132.005,2.279-.021,3.395-.081,3.385.571,6.734.278,10.129-.174,2.01.017,4.058.134,6.083.06,1.044-.445,2.104.138,3.146.138.247-.087.653-.479.696-.516.057-.748-.284-.979-.708-.837-1.535-.499-3.177-.525-4.792-.031-1.946-.105-3.891-.155-5.836-.062-2.421-.212-4.837.004-7.265.111-1.252-.136-2.528-.185-3.797-.188-4.831-.505-9.657-.845-14.48-.115-1.629-.525-3.233-.534-4.879-.005-.928-.709-.963-1.346-.985-2.582-.089-5.163.154-7.755-.186-1.243-.163-2.558.16-3.832.328-.492.065-.986.288-1.182-.368-.18-.601.15-.913.695-1.192,1.542-.79,3.206-.61,4.802-.549,2.544.098,5.101.016,7.633.375.65.092.58-.314.548-.749-.082-1.112-.085-2.232-.202-3.339-.271-2.565-.183-5.152-.137-7.706.04-2.226-.172-4.463.076-6.687.05-.451.179-.863.517-1.18.292-.275.643-.32,1.001-.162.348.154.451.476.344.805-.728,2.229-.542,4.537-.334,6.776.353,3.806-.111,7.639.508,11.428.106.649.356.872,1.013.846,1.236-.049,2.476-.014,3.714-.014,0,.083,0,.166,0,.249Z" fill="#fff" stroke-width="0"/><path d="M80.973,29.975c-.622.797-.779,1.426-.792,2.059-.014.684.118,1.369-.701,1.718-.11.047-.242.303-.205.399.484,1.223-.681,2.374-.143,3.604.078.179.007.526-.128.678-1.166,1.317-.685,2.865-.638,4.347.01.317.196.736-.035.924-.961.778-.509,1.809-.609,2.752-.194,1.834-.23,3.729-.758,5.469-.468,1.545-.899,3.071-1.157,4.663-.086.53-.346,1.133-.983,1.248-.599.108-.882-.386-1.212-.808-1.012-1.295-1.509-2.741-1.751-4.374-.261-1.763-.485-3.537-.825-5.297-.534-2.76-.612-5.6-.816-8.414-.103-1.419-.239-2.843-.323-4.271-.095-1.622.471-3.152.546-4.746.024-.507.285-.847.83-.814.604.036.602.52.655.966.153,1.279-.511,2.459-.414,3.737.219,2.889.197,5.805.491,8.672.26,2.538.78,5.062,1.085,7.614.194,1.623.869,3.188,1.319,4.744.506-.03.53-.326.507-.531-.219-1.995.361-3.933.711-5.825.583-3.155.875-6.316,1.15-9.494.037-.432.188-.855.296-1.279.282-1.111.496-2.207.58-3.379.146-2.048.368-4.233,2.366-5.551,1.203-.794,1.992-.483,2.443.887.521,1.58.722,3.281,1.247,4.801.761,2.206.692,4.58,1.675,6.7.127.274.185.647.116.935-.355,1.477.286,2.738.828,4.011.346.813.647,1.582.556,2.516-.144,1.469.632,2.78,1.022,4.139.254.884.587,1.803.977,2.674.308.688.484,1.413,1.153,1.888.428.303.438.761.142,1.167-.311.425-.706.261-1.063.037-.583-.365-1.093-.867-1.39-1.445-.614-1.196-1.254-2.426-1.569-3.719-.706-2.895-1.2-5.841-1.816-8.759-.79-3.744-1.572-7.488-2.722-11.147-.326-1.037-.407-2.152-.647-3.494Z" fill="#fff" stroke-width="0"/><path d="M98.17,217.911c.68-1.066.539-2.294.864-3.417.981-3.384.693-6.913,1.089-10.365.16-1.4.406-2.901.283-4.231-.217-2.335.159-4.588.303-6.864.072-1.146.526-2.365,1.867-2.896,1.038-.411,1.749-.032,1.913.929.205,1.207,1.017,2.173,1.179,3.342.247,1.785,1.269,3.373,1.438,5.103.163,1.664.643,3.287.546,5.005-.106,1.881,1.145,3.567,1.064,5.501-.036.861.358,1.712.164,2.593-.083.375-.04.727.206,1.019.456.544.427,1.108.067,1.659-.413.634-.485,1.163.262,1.604.328.194.498.538.501.912.007,1.02.241,1.975.712,2.88.152.293.229.624-.086.87-.264.206-.521.023-.787-.062-1.128-.361-1.715-1.3-1.497-2.287.442-2-.1-3.747-1.064-5.358-.745-1.247-.626-2.541-.647-3.825-.021-1.256-.617-2.383-.621-3.615-.007-2.307-1.353-4.394-1.059-6.763.098-.791-.36-1.545-.577-2.312-.168-.594-.574-1.173-.112-1.821.072-.101.065-.397-.006-.442-1.084-.68-.788-1.913-1.178-3.057-.781,1.206-.726,2.497-.818,3.627-.096,1.168-.419,2.362-.053,3.633.215.747-.363,1.724-.589,2.596-.049.189-.199.388-.166.556.533,2.722-.341,5.385-.366,8.095-.026,2.943-.729,5.89-1.701,8.717-.24.696-.807.997-1.512.891-.653-.098-1.076-.494-1.107-1.212-.073-1.741-.455-3.502-.527-5.169-.104-2.41-1.007-4.714-.689-7.174.212-1.638-.41-3.302-.689-4.922-.295-1.719-.718-3.517-1.053-5.213-.308-1.562-.936-3.521.034-5.238.168-.297.239-.809.665-.748.499.071.446.588.469.979.26,4.409,1.077,8.754,1.491,13.143.186,1.97.678,3.897.675,5.896-.001.934.669,1.816-.005,2.827-.242.363.477.815.64,1.331.339,1.074.278,2.17.476,3.28Z" fill="#fff" stroke-width="0"/><path d="M60.255,44.71c-.039-3.992-.442-7.819-1.079-11.606-.332-1.974-.901-3.924-1.905-5.73-1.131-2.034-2.518-2.342-4.143-.687-1.132,1.153-1.953,2.533-2.2,4.135-.249,1.617-.726,3.199-.772,4.85-.008.269-.1.555-.224.797-.226.439-.617.659-1.097.464-.456-.185-.702-.601-.543-1.071.643-1.902.58-3.958,1.132-5.833.692-2.351,1.973-4.516,4.381-5.627,1.663-.768,3.859.26,4.646,2.09,1.05,2.44,1.966,4.934,2.441,7.548.325,1.784.375,3.631.647,5.41.366,2.389.326,4.765.46,7.148.188,3.329.427,6.654.647,9.981.016.238-.03.623.092.691,1.999,1.116.217,2.212-.17,3.07-.592,1.311-1.962,2.06-3.255,2.668-1.027.483-1.943-.126-2.748-.737-2.657-2.019-4.177-4.862-5.094-7.929-.782-2.616-1.265-5.36-1.002-8.157.155-1.645.616-3.191,1.83-4.311,2.688-2.48,4.9-1.473,6.947,1.216.355.466.397,1.128,1.009,1.619ZM60.469,52.776c0-.279-.003-.559,0-.838.035-3.249-1.296-6.016-3.096-8.595-.665-.953-1.722-1.356-2.84-1.183-1.105.171-1.591,1.143-1.907,2.097-.337,1.019-.555,2.075-.54,3.17.059,4.534.726,8.839,3.916,12.417,2.27,2.545,4.083,1.275,5.489-.839.175-.262.174-.616-.13-.721-.77-.266-.607-.858-.699-1.451-.21-1.353-.177-2.703-.193-4.058Z" fill="#fff" stroke-width="0"/><path d="M115.298,204.732c-.038-1.28.436-2.581-.319-3.836-.291-.484.013-1.088.363-1.561.443-.599.419-1.272-.03-1.774-.438-.489-.123-.881-.16-1.286-.136-1.485.803-2.599.966-3.924.067-.547.399-.956.681-1.203,1.063-.931,1.253-2.55,2.79-3.14,1.898-.729,3.756-1.294,5.654-.261,1.449.789,1.587,2.398,1.864,3.795.17.857.055,1.842-.193,2.694-.318,1.092-.149,2.206-.335,3.309-.379,2.251-.959,4.451-1.832,6.485-.711,1.656-2.128,3.066-3.974,3.736-.89.323-1.829.526-2.757.727-.641.139-.593.532-.476.992.66,2.607,1.706,5.013,3.615,6.975.526.541,1.278.318,1.896.619,2.798,1.366,5.577,1.054,8.471.081,2.914-.98,5.418-2.662,8.1-4.044,1.442-.743,2.876-1.507,4.33-2.229.265-.131.644-.376.864-.023.235.379-.117.668-.378.906-1.129,1.025-2.527,1.649-3.782,2.487-2.515,1.68-5.172,3.108-8.01,4.198-1.961.754-4.074,1.395-6.048,1.194-2.565-.262-5.069-1.058-7.206-2.962-1.604-1.429-1.968-3.169-2.564-4.942-.348-1.035-1.065-1.936-1.062-3.107,0-.331-.414-.435-.718-.551-.331-.127-.689-.241-.96-.456-.39-.31-.991-.66-.714-1.232.252-.522.861-.282,1.299-.131.616.212.821.068.692-.581-.062-.31-.047-.636-.067-.955ZM116.787,204.236c.086.689.167,1.362.257,2.033.037.272.055.541.378.684,1.147.507,3.702-.295,4.423-1.441,2.185-3.475,3.582-7.184,3.363-11.375-.027-.511-.093-1.106.123-1.528.536-1.051.251-1.826-.394-2.72-1.532-2.121-3.627-2.024-4.751.305-.122.253-.219.671-.49.605-1.883-.456-1.021,1.05-1.191,1.715-.182.711-.212,1.385-1.078,1.665-.614.198-.63.699-.194,1.116.515.492.525,1.057.343,1.653-.725,2.387-.612,4.856-.787,7.289Z" fill="#fff" stroke-width="0"/><path d="M25.875,30.625c-3.163.139-6.093-.249-9.029-.384-2.238-.103-4.438.348-6.663.163-1.964-.163-3.939.339-5.901-.095-.492-.109-.523.194-.458.566.912,5.176,1.725,10.359,2.187,15.605.328,3.737.408,7.472.506,11.212.016.594.099,1.349-.739,1.385-.839.036-.783-.698-.839-1.308-.556-6.038-.535-12.109-1.31-18.143-.772-6.007-1.814-11.988-2.305-18.02C.939,16.886-.141,12.22.152,7.443c.031-.505-.173-1.023-.15-1.529.015-.34.215-.731.674-.694.402.032.476.392.505.713.243,2.704.468,5.409.716,8.113.12,1.304.243,2.609.573,3.883.04.155.139.317.117.462-.495,3.242,1.432,6.201,1.095,9.431-.074.705.444.947,1.114.904,5.893-.38,11.78-.199,17.674.06,2.578.113,5.163.599,7.758.168.338-.056.664.013.776.39.099.333-.023.63-.286.86-.386.339-.862.413-1.345.418-1.238.012-2.476.004-3.498.004Z" fill="#fff" stroke-width="0"/><path d="M113.01,36.283c.137,1.183-.396,2.267.687,2.972.109.071.091.375.089.571-.025,2.615.79,5.058,1.529,7.517.067.224.143.471.114.693-.305,2.327.213,4.502,1.158,6.61.166.371.301.756.656.973.413.252.977.464.648,1.059-.318.575-.958.71-1.574.582-.488-.102-.729-.49-.972-.954-1.149-2.192-1.143-4.639-1.547-6.977-.563-3.26-1.293-6.484-1.887-9.736-.172-.942-.518-1.934-.37-2.836.295-1.797-.581-3.222-1.136-4.755-.237-.653-.75-.608-1.057-.056-.593,1.067-1.356,2.13-1.591,3.288-.546,2.689-1.482,5.303-1.714,8.046-.211,2.502-.941,4.924-1.569,7.291-.439,1.652-1.313,3.471-2.485,4.947-.533.672-1.172.626-1.649-.122-.708-1.109-1.387-2.236-2.071-3.36-.103-.169-.228-.358-.24-.545-.131-2.068-.786-4.006-1.294-5.996-.59-2.313-.872-4.734-1.178-7.118-.251-1.96-.666-3.91-.609-5.915.027-.951.394-1.69.929-2.404.203-.27.442-.486.808-.339.315.127.343.424.321.708-.028.357-.016.745-.155,1.061-.446,1.017-.493,2.029.04,2.996.774,1.405.5,2.963.722,4.444.197,1.31.677,2.628.639,3.902-.076,2.523,1.099,4.791,1.155,7.261.028,1.217,1.095,2.029,1.364,3.208.127.556.832.216.896-.278.283-2.154,1.951-3.79,2.118-6.001.255-3.372,1.262-6.609,2.039-9.881.52-2.188.856-4.477,2.419-6.287.896-1.037,2.946-.904,3.381.385.299.886.783,1.64,1.15,2.469.408.92.31,1.874.238,2.572Z" fill="#fff" stroke-width="0"/><path d="M80.172,213.817c-.787-1.106-.64-2.361-.788-3.486-.271-2.053-.066-4.16-.241-6.207-.148-1.731-.042-3.465-.253-5.201-.228-1.869-.062-3.841.642-5.643.537-1.376,3.53-1.909,4.495-.782.755.881,1.886,1.555,2.014,2.891.007.074.048.184.104.21,1.548.704,1.428,2.358,2.006,3.597.361.773.485,1.664.667,2.513.604,2.814.777,5.657.848,8.539.051,2.073.027,4.175-.219,6.174-.367,2.991-.962,6.126-4.133,7.773-1.6.831-3.389.366-4.354-1.184-1.951-3.136-3.037-6.555-3.452-10.208-.183-1.612-1.03-3.072-1.195-4.665-.147-1.417-.022-2.869.064-4.3.03-.499.416-.925.984-.834.505.081.467.571.468.973.005,4.447.697,8.813,1.717,13.12.393,1.66,1.101,3.247,2.043,4.703,1.263,1.954,3.669,1.874,4.812-.197.955-1.731,1.337-3.645,1.594-5.579.486-3.667.157-7.324-.278-10.967-.202-1.694-.423-3.573-1.094-4.967-.968-2.011-1.27-4.473-3.225-6.003-.61-.478-1.19-.843-1.936-.671-.766.177-.855.875-.915,1.524-.279,3.027-.227,6.064-.191,9.097.032,2.712-.071,5.431.252,8.137.062.517.113,1.106-.437,1.643Z" fill="#fff" stroke-width="0"/><path d="M39.406,211.315c-.226-1.061-.409-2.133-.69-3.179-.342-1.276-.674-2.54-.577-3.881.019-.266-.023-.594-.168-.802-.544-.783-.637-1.723-.498-2.538.349-2.047-.395-3.947-.654-5.891-.264-1.98-.829-3.959-2.015-5.69-.555-.81-1.067-1.43-2.154-1.407-.515.011-1.185.01-1.386-.693-.105-.364.147-.626.448-.762.587-.264,1.11-.172,1.679.2,3.399,2.219,4.229,5.827,5.07,9.395.6,2.542.368,5.184.894,7.78.501,2.475,1.102,4.955,1.394,7.478.075.647.246,1.065,1.017.964.435-.057.805.134.906.601.091.424-.177.709-.536.829-1.289.431-.886,1.401-.76,2.285.066.463.668.997-.043,1.36-.608.311-1.056-.203-1.457-.573-.225-.207-.434-.513-.493-.805-.173-.859-.748-1.218-1.475-.97-1.482.505-2.876.027-4.209-.356-3.373-.968-6.552-3.225-6.159-7.388.182-1.921,1.329-4.246,3.871-4.863.337-.082.625-.041.917.128,2.15,1.242,3.797,2.922,4.801,5.237.543,1.251,1.25,2.432,1.883,3.644.131-.034.263-.068.394-.102ZM35.827,213.477c.24,0,.48.004.72,0,1.317-.023,1.501-.282,1.064-1.505-.053-.149-.144-.285-.202-.433-.766-1.932-2.134-3.533-2.976-5.425-.364-.818-1.433-.806-1.924-1.543-.671-1.006-1.484-.74-2.233-.074-2.06,1.831-1.885,5.778.393,7.294,1.539,1.025,3.243,1.728,5.16,1.688Z" fill="#fff" stroke-width="0"/><path d="M142.181,47.91c.11,1.481.214,2.87.316,4.259.009.119.047.261,0,.354-1.119,2.174-1.179,4.858-3.038,6.646-.63.606-1.547.912-2.467,1.217-1.84.609-2.854-.337-4.052-1.32-1.283-1.053-2.73-1.928-3.011-3.772-.027-.178-.171-.387-.323-.491-1.873-1.278-2.021-3.412-2.781-5.281-.592-1.456-.841-2.971-1.21-4.447-.377-1.506-.742-3.191.849-4.505.88-.727.823-2.038,1.32-3.041,1.181-2.379,3.71-3.758,6.129-2.835,1.193.455,2.479,1.065,3.42,2.05,1.65,1.726,3.278,3.474,3.677,5.989.072.455.398.864.563,1.31.472,1.275.995,2.545.609,3.867ZM140.957,49.603c.147-2.252-.504-4.32-1.144-6.443-.741-2.459-2.201-4.311-4.155-5.76-1.465-1.086-3.331-1.756-5.062-.859-1.634.846-2.395,2.541-2.428,4.414-.037,2.148.228,4.301-.117,6.446-.03.188.013.406.082.587.764,2.02.98,4.215,2.32,6.06,1.142,1.573,1.837,3.393,3.746,4.411,1.663.887,3.508.822,4.684-.699,1.872-2.421,2.043-5.278,2.075-8.159Z" fill="#fff" stroke-width="0"/><path d="M34.441,9.349c-.001,1.733.509,3.389.754,5.087.512,3.553,1.212,7.096,1.432,10.668.109,1.778.671,3.479.604,5.251-.043,1.14-.175,2.253-.036,3.42.131,1.097.446,2.25.37,3.271-.1,1.345.548,2.588.163,3.949-.385,1.363.181,2.767.274,4.156.253,3.77.508,7.546,1.038,11.293.072.513.092,1.036.095,1.555.003.414-.086.846-.585.915-.567.078-.757-.36-.861-.805-.072-.308-.085-.633-.098-.951-.034-.845-.109-1.664-.618-2.398-.273-.395-.453-.892-.284-1.37.255-.72.134-1.415.009-2.122-.543-3.071-.443-6.2-.577-9.288-.117-2.695-.297-5.401-.538-8.073-.214-2.381-.431-4.802-.56-7.165-.213-3.921-1.267-7.757-1.037-11.702.029-.495-.061-.97-.297-1.39-.385-.686-.618-1.455-.563-2.184.25-3.347-1.161-6.387-1.652-9.593-.036-.237-.096-.471-.122-.708-.056-.506-.029-1.027.582-1.143.716-.137.694.466.794.925.542,2.486,1.092,4.969,1.627,7.456.066.308.058.632.085.948Z" fill="#fff" stroke-width="0"/><path d="M64.921,129.254c.153,1.255.194,3.108-.118,4.977-.632,3.782-1.793,7.341-4.071,10.47-1.001,1.374-2.472,2.097-4.072,2.217-.957.071-2.017-.435-2.796-1.122-1.342-1.184-2.853-2.285-3.849-3.727-1.415-2.047-2.956-4.088-3.097-6.819-.135-2.603-.061-5.166.389-7.723.177-1.006-.169-2.109.541-3.017.27-.345.531-.699.83-1.017.33-.351.735-.781,1.22-.356.511.446.09.89-.24,1.224-.581.588-.602,1.306-.739,2.068-.368,2.048-.354,4.122-.603,6.173-.074.609-.194,1.278.095,1.767.94,1.591,1.037,3.455,1.876,5.116.91,1.801,2.02,3.305,3.469,4.641,2.01,1.853,4.585,1.492,6.178-.702,1.998-2.753,2.573-5.92,3.165-9.146.526-2.866.123-5.705.098-8.556-.004-.486-.364-.96-.494-1.456-.115-.439-.092-.948.362-1.166.538-.257.708.313.834.624.635,1.573,1.138,3.185,1.022,5.531Z" fill="#fff" stroke-width="0"/><path d="M20.986,191.459c-2.801.123-5.577.519-8.118,1.724-1.648.781-2.637,2.118-3.059,4.118-.654,3.104-.237,6.145.077,9.159.26,2.501,1.271,4.916,2.262,7.268.077.183.211.341.289.524.156.364.426.866.029,1.087-.461.257-.812-.219-.988-.612-1.651-3.689-2.877-7.468-3.228-11.556-.232-2.7-.213-5.337.513-7.911.546-1.935,1.959-3.202,3.912-3.843,1.901-.624,3.872-.944,5.821-1.32,1.582-.306,3.254.144,4.858-.389.453-.15.837.251.925.738.088.486-.236.737-.664.842-.861.21-1.741.21-2.628.173Z" fill="#fff" stroke-width="0"/><path d="M70.504,201.655c-.269.724.044,1.348.151,2.012.395,2.459,1.056,4.862,1.204,7.382.084,1.431.49,2.859.466,4.339-.007.458.281.895-.205,1.277-.186.146-.115.367.014.537.933,1.238.364,2.636.407,3.965.012.369-.265.703-.7.666-.447-.038-.772-.366-.785-.786-.084-2.659-1.279-5.255-.464-7.964.093-.31.214-.647.052-.934-.875-1.546-.303-3.327-.758-4.862-.379-1.281-.573-2.633-.687-3.857-.197-2.115-1.109-4.076-1.073-6.193.013-.766-.11-1.509-.153-2.263-.02-.361.09-.77.512-.848.435-.08.7.287.739.631.263,2.339.902,4.608,1.282,6.896Z" fill="#fff" stroke-width="0"/><path d="M108.729,139.61c.212,2.334.158,4.682.512,7.017.242,1.595.073,3.254.061,4.885-.002.26-.048.612-.396.657-.332.043-.456-.277-.593-.508-.464-.785-.502-1.681-.57-2.548-.304-3.841-.656-7.681-.808-11.529-.08-2.02.196-4.053-.366-6.046-.1-.356.072-.634.407-.769.384-.154.714-.037.924.319.098.166.172.366.191.557.261,2.651-.042,5.345.639,7.965Z" fill="#fff" stroke-width="0"/><path d="M65.695,188.952c0-.439.038-.882-.007-1.317-.173-1.661-.404-3.299.179-4.956.501-1.421.132-2.843-.412-4.193-.269-.668-.401-1.341-.057-1.962.308-.557-.006-.999-.054-1.493-.02-.202.021-.418.261-.474.256-.059.366.134.396.337.37,2.496,1.581,4.848,1.374,7.433-.181,2.264-.241,4.522-.133,6.789.017.357-.036.71.082,1.064.117.352.535.722.142,1.084-.304.281-.679-.051-1.022-.092-.509-.062-.766-.393-.775-.903-.008-.439-.002-.878-.002-1.317h.027Z" fill="#fff" stroke-width="0"/><path d="M102.307,97.971c.119-.354-.163-1.109.566-1.134.635-.022.674.672.794,1.171.622,2.581,1.217,5.169,1.882,7.739.227.877-.018,1.783.437,2.678.265.52-.519.719-.972.532-.591-.243-1.133-.676-1.28-1.339-.702-3.148-1.232-6.324-1.428-9.648Z" fill="#fff" stroke-width="0"/></g></g></svg>