<?xml version="1.0" encoding="UTF-8"?>
<svg id="Layer_1" data-name="Layer 1" xmlns="http://www.w3.org/2000/svg" version="1.1" viewBox="0 0 1431.93 411.26">
  <defs>
    <style>
      .cls-1 {
        fill: #fff;
        stroke-width: 0px;
      }
    </style>
  </defs>
  <g>
    <path class="cls-1" d="M314.44,138.22h14.31c1.29,0,2.33,1.04,2.33,2.33v53.21c0,1.29,1.04,2.33,2.33,2.33h56.05c1.29,0,2.33-1.04,2.33-2.33v-53.21c0-1.29,1.04-2.33,2.33-2.33h14.31c1.29,0,2.33,1.04,2.33,2.33v131.95c0,1.29-1.04,2.33-2.33,2.33h-14.31c-1.29,0-2.33-1.04-2.33-2.33v-57c0-1.29-1.04-2.33-2.33-2.33h-56.05c-1.29,0-2.33,1.04-2.33,2.33v57c0,1.29-1.04,2.33-2.33,2.33h-14.31c-1.29,0-2.33-1.04-2.33-2.33v-131.95c0-1.29,1.04-2.33,2.33-2.33Z"/>
    <path class="cls-1" d="M517.53,274.83h-12.41c-1.29,0-2.33-1.04-2.33-2.33v-8.48c0-.88-.44-1.33-1.33-1.33-.38,0-.73.16-1.04.47-.32.32-.66.66-1.04,1.04-7.09,8.98-17.33,13.47-30.74,13.47-12.4,0-22.14-3.48-29.22-10.43-7.09-6.96-10.63-16.76-10.63-29.41v-59.33c0-1.29,1.04-2.33,2.33-2.33h12.41c1.29,0,2.33,1.04,2.33,2.33v56.49c0,8.98,2.28,15.81,6.83,20.49,4.55,4.68,11.13,7.02,19.73,7.02,9.74,0,17.23-2.94,22.48-8.82,5.25-5.88,7.87-14.64,7.87-26.28v-48.9c0-1.29,1.04-2.33,2.33-2.33h12.41c1.29,0,2.33,1.04,2.33,2.33v94c0,1.29-1.04,2.33-2.33,2.33Z"/>
    <path class="cls-1" d="M539.27,176.16h12.41c1.29,0,2.33,1.04,2.33,2.33v8.48c0,.89.44,1.33,1.33,1.33.63,0,1.33-.57,2.09-1.71,5.82-8.85,15.11-13.28,27.89-13.28,7.46,0,13.82,1.52,19.07,4.55,5.25,3.04,9.26,7.28,12.05,12.71.63,1.01,1.33,1.52,2.09,1.52.5,0,.92-.16,1.23-.47.31-.31.6-.79.85-1.42,5.56-11.26,16.25-16.89,32.07-16.89,11.26,0,20.08,3.48,26.47,10.44,6.38,6.96,9.58,16.44,9.58,28.46v60.28c0,1.29-1.04,2.33-2.33,2.33h-12.41c-1.29,0-2.33-1.04-2.33-2.33v-58.38c0-8.47-2.09-14.86-6.26-19.16-4.17-4.3-10.31-6.45-18.4-6.45-7.34,0-13.44,2.5-18.31,7.5-4.87,5-7.31,12.62-7.31,22.86v53.64c0,1.29-1.04,2.33-2.33,2.33h-12.41c-1.29,0-2.33-1.04-2.33-2.33v-58.38c0-8.47-2.09-14.86-6.26-19.16-4.17-4.3-10.31-6.45-18.4-6.45-7.34,0-13.44,2.5-18.31,7.5-4.87,5-7.3,12.62-7.3,22.86v53.64c0,1.29-1.04,2.33-2.33,2.33h-12.41c-1.29,0-2.33-1.04-2.33-2.33v-94c0-1.29,1.04-2.33,2.33-2.33Z"/>
    <path class="cls-1" d="M710.08,224.83c6-5,15.02-7.62,27.04-7.87l36.05-.76v-3.99c0-7.46-2.15-13.28-6.45-17.46-4.3-4.17-11.01-6.26-20.11-6.26-8.1,0-14.23,1.77-18.41,5.31-3.61,3.06-5.65,6.88-6.14,11.45-.13,1.23-1.08,2.21-2.32,2.21h-13.24c-1.38,0-2.51-1.2-2.34-2.57.68-5.43,2.5-10.39,5.46-14.88,3.41-5.19,8.29-9.26,14.61-12.24,6.32-2.97,13.79-4.46,22.39-4.46,14.42,0,25.29,3.48,32.63,10.44,7.34,6.96,11.01,16.76,11.01,29.41v59.33c0,1.29-1.04,2.33-2.33,2.33h-12.41c-1.29,0-2.33-1.04-2.33-2.33v-7.91c0-.76-.38-1.14-1.14-1.14-.64,0-1.27.38-1.9,1.14-6.83,8.73-16.89,13.09-30.17,13.09-12.14,0-21.66-2.97-28.56-8.92-6.9-5.94-10.34-13.72-10.34-23.34,0-8.73,3-15.59,9.02-20.59ZM724.4,257.94c4.17,3.04,9.99,4.55,17.46,4.55,9.74,0,17.39-2.66,22.96-7.97,5.56-5.31,8.35-13.09,8.35-23.34v-.76l-36.05.76c-6.45.13-11.23,1.42-14.33,3.89-3.1,2.47-4.65,5.91-4.65,10.34,0,5.31,2.09,9.49,6.26,12.52Z"/>
    <path class="cls-1" d="M808.7,176.16h12.41c1.29,0,2.33,1.04,2.33,2.33v8.48c0,.89.44,1.33,1.33,1.33.38,0,.73-.16,1.05-.48.31-.31.66-.66,1.04-1.04,6.7-8.98,16.95-13.47,30.74-13.47,12.39,0,22.13,3.48,29.22,10.44,7.08,6.96,10.63,16.76,10.63,29.41v59.33c0,1.29-1.04,2.33-2.33,2.33h-12.41c-1.29,0-2.33-1.04-2.33-2.33v-56.49c0-8.98-2.28-15.81-6.83-20.49-4.56-4.68-11.13-7.02-19.73-7.02-9.74,0-17.24,2.94-22.48,8.82-5.25,5.88-7.87,14.64-7.87,26.28v48.9c0,1.29-1.04,2.33-2.33,2.33h-12.41c-1.29,0-2.33-1.04-2.33-2.33v-94c0-1.29,1.04-2.33,2.33-2.33Z"/>
    <path class="cls-1" d="M962.9,140.55c0-1.29,1.04-2.33,2.33-2.33h39.41c19.86,0,35.26,5.53,46.2,16.6,10.94,11.07,16.41,28.3,16.41,51.7s-5.47,40.64-16.41,51.7c-10.94,11.07-26.34,16.6-46.2,16.6h-39.41c-1.29,0-2.33-1.04-2.33-2.33v-131.95ZM1004.64,257.75c14.55,0,25.46-3.89,32.73-11.67,7.27-7.78,10.91-20.97,10.91-39.56s-3.64-31.78-10.91-39.56c-7.28-7.78-18.19-11.67-32.73-11.67h-20.43c-1.29,0-2.33,1.04-2.33,2.33v97.8c0,1.29,1.04,2.33,2.33,2.33h20.43Z"/>
    <path class="cls-1" d="M1084.8,224.83c6.01-5,15.02-7.62,27.04-7.87l36.05-.76v-3.99c0-7.46-2.15-13.28-6.45-17.46-4.3-4.17-11-6.26-20.11-6.26-8.09,0-14.23,1.77-18.4,5.31-3.61,3.06-5.66,6.88-6.15,11.45-.13,1.23-1.08,2.21-2.32,2.21h-13.24c-1.38,0-2.51-1.2-2.34-2.57.68-5.43,2.5-10.39,5.46-14.88,3.42-5.19,8.28-9.26,14.61-12.24,6.33-2.97,13.79-4.46,22.39-4.46,14.42,0,25.3,3.48,32.64,10.44,7.33,6.96,11,16.76,11,29.41v59.33c0,1.29-1.04,2.33-2.33,2.33h-12.41c-1.29,0-2.33-1.04-2.33-2.33v-7.91c0-.76-.38-1.14-1.14-1.14-.64,0-1.27.38-1.9,1.14-6.83,8.73-16.89,13.09-30.17,13.09-12.14,0-21.66-2.97-28.56-8.92-6.9-5.94-10.34-13.72-10.34-23.34,0-8.73,3-15.59,9.01-20.59ZM1099.13,257.94c4.17,3.04,9.99,4.55,17.45,4.55,9.74,0,17.39-2.66,22.96-7.97,5.56-5.31,8.35-13.09,8.35-23.34v-.76l-36.05.76c-6.45.13-11.22,1.42-14.32,3.89-3.1,2.47-4.65,5.91-4.65,10.34,0,5.31,2.09,9.49,6.26,12.52Z"/>
    <path class="cls-1" d="M1169.95,176.16h18.11c1.29,0,2.33-1.04,2.33-2.33v-21.9c0-1.29,1.04-2.33,2.33-2.33h12.41c1.29,0,2.33,1.04,2.33,2.33v21.9c0,1.29,1.04,2.33,2.33,2.33h20.95c1.29,0,2.33,1.04,2.33,2.33v10.52c0,1.29-1.04,2.33-2.33,2.33h-20.95c-1.29,0-2.33,1.04-2.33,2.33v63.13c0,.89.25,1.58.76,2.09.5.51,1.2.76,2.09.76h23.29c1.29,0,2.33,1.04,2.33,2.33v10.52c0,1.29-1.04,2.33-2.33,2.33h-10.95c-10.88,0-18.97-2.66-24.29-7.97-5.31-5.31-7.97-13.41-7.97-24.29v-48.9c0-1.29-1.04-2.33-2.33-2.33h-18.11c-1.29,0-2.33-1.04-2.33-2.33v-10.52c0-1.29,1.04-2.33,2.33-2.33Z"/>
    <path class="cls-1" d="M1248.93,224.83c6-5,15.02-7.62,27.04-7.87l36.05-.76v-3.99c0-7.46-2.15-13.28-6.45-17.46-4.3-4.17-11.01-6.26-20.11-6.26-8.1,0-14.23,1.77-18.41,5.31-3.61,3.06-5.65,6.88-6.14,11.45-.13,1.23-1.08,2.21-2.32,2.21h-13.24c-1.38,0-2.51-1.2-2.34-2.57.68-5.43,2.5-10.39,5.46-14.88,3.41-5.19,8.29-9.26,14.61-12.24,6.32-2.97,13.79-4.46,22.39-4.46,14.42,0,25.29,3.48,32.63,10.44,7.34,6.96,11.01,16.76,11.01,29.41v59.33c0,1.29-1.04,2.33-2.33,2.33h-12.41c-1.29,0-2.33-1.04-2.33-2.33v-7.91c0-.76-.38-1.14-1.14-1.14-.64,0-1.27.38-1.9,1.14-6.83,8.73-16.89,13.09-30.17,13.09-12.14,0-21.66-2.97-28.56-8.92-6.9-5.94-10.34-13.72-10.34-23.34,0-8.73,3-15.59,9.02-20.59ZM1263.25,257.94c4.17,3.04,9.99,4.55,17.46,4.55,9.74,0,17.39-2.66,22.96-7.97,5.56-5.31,8.35-13.09,8.35-23.34v-.76l-36.05.76c-6.45.13-11.23,1.42-14.33,3.89-3.1,2.47-4.65,5.91-4.65,10.34,0,5.31,2.09,9.49,6.26,12.52Z"/>
  </g>
  <g>
    <rect class="cls-1" x="110.29" y="233.58" width="54.02" height="25.72" rx=".8" ry=".8" transform="translate(-134.05 169.26) rotate(-45)"/>
    <rect class="cls-1" x="186.68" y="157.19" width="54.02" height="25.72" rx=".8" ry=".8" transform="translate(-57.66 200.91) rotate(-45)"/>
    <path class="cls-1" d="M240.23,258.1c.91-.91.91-2.39,0-3.3l-36.55-36.55-38.2-38.2-36.55-36.55c-.91-.91-2.39-.91-3.3,0l-14.89,14.89c-.91.91-.91,2.39,0,3.3l36.55,36.55,38.2,38.2h0l36.55,36.55c.91.91,2.39.91,3.3,0l14.89-14.89Z"/>
    <circle class="cls-1" cx="175.49" cy="146.98" r="14.01"/>
    <circle class="cls-1" cx="175.49" cy="264.27" r="14.01"/>
    <circle class="cls-1" cx="234.14" cy="205.63" r="14.01"/>
    <circle class="cls-1" cx="116.85" cy="205.63" r="14.01"/>
  </g>
</svg>