<?xml version="1.0" encoding="UTF-8"?><svg id="Layer_2" xmlns="http://www.w3.org/2000/svg" width="88.97" height="102.916" viewBox="0 0 88.97 102.916"><g id="Layer_1-2"><polygon points="0 88.109 1.646 88.109 1.646 94.586 10.059 94.586 10.059 88.109 11.704 88.109 11.704 102.687 10.059 102.687 10.059 96.127 1.646 96.127 1.646 102.687 0 102.687 0 88.109" fill="#fff" stroke-width="0"/><path d="M16.433,96.585v-8.476h1.646v8.372c0,3.144,1.686,4.915,4.457,4.915,2.686,0,4.394-1.624,4.394-4.811v-8.476h1.645v8.351c0,4.249-2.437,6.456-6.081,6.456-3.603,0-6.06-2.207-6.06-6.331" fill="#fff" stroke-width="0"/><polygon points="33.303 88.109 34.969 88.109 40.28 96.065 45.59 88.109 47.256 88.109 47.256 102.687 45.611 102.687 45.611 90.879 40.3 98.689 40.217 98.689 34.907 90.9 34.907 102.687 33.303 102.687 33.303 88.109" fill="#fff" stroke-width="0"/><path d="M61.669,97.335l-3.311-7.414-3.332,7.414h6.643ZM57.609,88.005h1.541l6.644,14.683h-1.77l-1.707-3.853h-7.934l-1.729,3.853h-1.687l6.644-14.683Z" fill="#fff" stroke-width="0"/><polygon points="69.501 88.109 71.043 88.109 80.227 99.793 80.227 88.109 81.83 88.109 81.83 102.687 80.518 102.687 71.105 90.733 71.105 102.687 69.501 102.687 69.501 88.109" fill="#fff" stroke-width="0"/><path d="M46.477,41.368h0l-9.949-9.949-.149.146c-.127.128-.127.337,0,.465l9.093,9.093-.043-.043-9.047,9.046c-.138.138-.215.322-.215.517,0,.196.076.38.215.518l.247.246,9.935-9.951-.087-.087Z" fill="#fff" stroke-width="0"/><path d="M40.304.759c0,.161.05.315.143.446l.023.031c.278.347.839.36,1.13.025l.106-.122.162.004c.303.008.854.024,1.146.046,1.563.12,3.092.352,4.542.691.457.106.927.228,1.398.363l.857.256.295.097c4.026,1.322,7.824,3.529,11.003,6.393l.355-.359c-3.767-3.411-8.172-5.791-13.099-7.075-1.838-.48-3.73-.777-5.781-.911-.117-.008-.323-.015-.569-.021l-.212-.006-.09-.191c-.124-.264-.38-.427-.666-.427-.409,0-.742.34-.742.759M39.623,4.005c-8.954.024-17.297,4.512-22.376,12.021l.347.353c1.327-1.969,2.94-3.777,4.797-5.377,4.921-4.241,10.705-6.419,17.192-6.471.852-.007,1.706-.004,2.558.001,1.88.009,3.793.242,5.685.692.446.108.594.11,1.001.252l.346.104c.419.124.84.261,1.254.406l.177.063.043.182c.081.342.377.58.721.58.41,0,.743-.34.743-.758s-.333-.76-.743-.76c-.161,0-.315.053-.445.153l-.148.113-.175-.061c-.482-.168-.983-.326-1.488-.47l-.382-.11-.763-.189c-.801-.189-1.617-.342-2.427-.454-1.25-.172-2.484-.263-3.67-.268-.389-.002-.778-.003-1.167-.003-.36,0-.719,0-1.079,0M10.393,24.739c-.172.7-.319,1.421-.451,2.206l-.029.173-.156.078c-.257.128-.416.388-.416.679,0,.419.333.758.742.758s.743-.339.743-.758c0-.227-.099-.441-.271-.586l-.151-.127.032-.194c.135-.791.307-1.595.51-2.389.394-1.545.912-3.075,1.538-4.548l.402-.908.112-.238c2.349-4.969,5.949-9.228,10.418-12.334l-.207-.476c-6.408,4.424-10.952,11.036-12.817,18.664M53.372,7.217c5.208,2.561,9.518,6.827,12.161,12.043,1.931,3.817,2.914,7.911,2.923,12.17.003,1.216.003,2.433.002,3.65v1.688l-.002,5.663c0,2.985-.002,5.97.004,8.955,0,1.021-.053,2.042-.159,3.035-.334.074-.586.37-.586.727,0,.412.334.746.746.746s.745-.334.745-.746c0-.289-.167-.536-.407-.661l.012-.109c.1-.953.15-1.92.148-2.876-.005-2.295-.004-4.587-.003-6.882v-2.604s-.002-3.156-.002-3.156c-.002-2.421-.004-4.842.005-7.263.04-10.538-5.993-20.255-15.401-24.862l-.185.481ZM34.668,7.896c0,.418.332.758.742.758.276,0,.528-.156.659-.407l.077-.151.167-.03c1.112-.201,2.266-.332,3.43-.39,2.351-.116,4.788.152,7.237.795,10.57,2.778,18.19,12.385,18.633,23.435h.489c-.287-6.584-2.756-12.335-7.341-17.087-1.918-1.989-4.088-3.606-6.471-4.844-1.235-.599-2.478-1.117-3.659-1.554l-.543-.167c-.621-.19-1.256-.36-1.886-.504-2.102-.48-4.326-.674-6.607-.577-1.083.045-2.186.168-3.281.364l-.201.036-.127-.159c-.143-.176-.353-.278-.575-.278-.41,0-.742.34-.742.76M18.526,20.436l-.089.164-.545,1.068c-.147.305-.29.613-.426.925-.947,2.185-1.589,4.494-1.908,6.865-.066.497-.117,1.01-.155,1.565l-.047.761-.013.499c-.007.284-.011.568-.011.85l-.002,1.146c-.296.099-.511.375-.511.704,0,.412.333.746.746.746s.745-.334.745-.746c0-.321-.205-.593-.491-.697l.018-2.514.059-.775c.096-1.307.296-2.605.594-3.861,1.134-4.795,3.467-8.943,6.934-12.329,2.899-2.832,6.214-4.848,9.856-5.998l-.146-.481c-6.145,1.972-11.455,6.369-14.607,12.109M62.209,10.514c0,.418.333.758.742.758.058,0,.116-.008.172-.022l.203-.052.139.156c2.565,2.86,4.562,6.128,5.935,9.713,1.367,3.573,2.062,7.344,2.067,11.212.005,3.075.006,6.151.004,9.226h.464c-.002-2.972-.002-6.139.012-9.278.033-7.742-2.948-15.503-8.181-21.292l-.112-.123.028-.166c.008-.043.012-.087.012-.131,0-.419-.333-.759-.742-.759s-.742.34-.742.759M39.819,10.344c-3.622.16-7.035,1.146-10.152,2.932l.206.475c3.332-1.917,7.029-2.907,10.816-2.907.686,0,1.376.032,2.066.098,1.78.169,3.517.548,5.161,1.125,5.966,2.091,10.789,6.683,13.232,12.598l.073.176-.111.155c-.094.132-.144.287-.144.449,0,.419.333.758.742.758s.743-.339.743-.758c0-.354-.247-.666-.586-.742l-.175-.038-.069-.167c-2.827-6.867-8.757-11.948-15.862-13.59-1.679-.389-3.361-.585-5.019-.585-.308,0-.615.007-.92.021M41.431,13.975c0,.412.334.745.746.745.283,0,.527-.16.653-.393l.05.006c.226.025.453.053.681.086,3.003.435,5.817,1.63,8.365,3.551,4.767,3.598,7.612,9.301,7.61,15.253v16.586c.002,1.07-.095,2.159-.286,3.238l.478.154c.204-1.128.309-2.271.312-3.401.002-.724.003-1.449.003-2.173l.002-1.301-.002-13.009c-.004-8.971-5.986-16.797-14.546-19.028-.764-.2-1.561-.352-2.372-.453l-.218-.027-.002.005c-.073-.335-.371-.587-.727-.587-.412,0-.746.334-.746.746M22.252,27.592c-.281.932-.495,1.893-.632,2.857l-.028.188-.173.077c-.272.121-.447.394-.447.695,0,.419.332.759.742.759s.742-.34.742-.759c0-.215-.086-.414-.244-.56l-.132-.124.025-.178c.048-.332.108-.674.178-1.018.92-4.462,3.119-8.156,6.537-10.981,3.276-2.705,6.965-4.162,10.972-4.332v-.508c-8.093.362-15.137,5.932-17.54,13.883M27.073,14.641c0,.047.006.093.012.136l.029.198-.158.124c-2.842,2.225-5.155,5.133-6.685,8.408-.988,2.113-1.647,4.359-1.957,6.673-.071.527-.123,1.073-.155,1.622l-.041,1.068-.006.467c.002,2.298.002,4.598.001,6.896h.482v-.251c0-2.177-.002-4.353,0-6.529.003-1.902.211-3.725.619-5.42,1.2-4.988,4.09-9.459,8.138-12.592l.131-.102.161.04c.06.015.116.022.17.022.41,0,.742-.34.742-.76s-.332-.758-.742-.758-.743.34-.743.758M29.372,21.892c-.723.71-1.379,1.486-1.95,2.312l.394.345c.214-.313.44-.622.677-.922,3.009-3.809,7.557-5.984,12.273-5.984.8,0,1.605.063,2.408.191,2.981.475,5.617,1.733,7.839,3.737,3.56,3.215,5.373,7.27,5.389,12.054.003,1.056.005,2.109.006,3.164v.64s-.159.101-.159.101c-.219.141-.35.381-.35.644,0,.418.333.757.742.757s.743-.339.743-.757c0-.256-.124-.492-.333-.632l-.152-.102.002-3.257c0-.248,0-.495-.002-.742-.053-4.323-1.57-8.104-4.509-11.242-2.445-2.611-5.399-4.225-8.78-4.8-1.04-.176-2.055-.265-3.045-.265-4.21,0-7.963,1.594-11.192,4.758M15.329,18.263c0,.235.111.442.281.579l-.032-.009-.099.195c-.195.386-.393.801-.586,1.233l-.188.42-.289.717c-.421,1.067-.779,2.169-1.061,3.275-.568,2.216-.855,4.481-.853,6.732.002,2.247.002,4.492.001,6.738v3.37c-.001,1.714-.001,3.431-.002,5.145h.496v-7.67c.002-2.044.003-4.087,0-6.131v-1.263c.005-2.241.237-4.289.713-6.263.308-1.285.705-2.553,1.178-3.768l.285-.715.236-.527c.187-.42.384-.829.583-1.219l.049-.096c.012,0,.022.003.034.003.412,0,.745-.333.745-.745s-.333-.746-.745-.746-.745.334-.745.746M33.936,22.32c-3.072,1.88-5.227,4.868-6.069,8.415-.233.99-.35,2.051-.346,3.157v.738l-.139.103c-.196.146-.309.37-.309.616,0,.242.116.471.31.614l.034.025c.12.077.257.119.398.119.41,0,.743-.34.743-.758,0-.271-.144-.523-.374-.659l-.17-.099v-.464c0-1.027.078-1.942.239-2.795,1.077-5.697,5.853-9.969,11.615-10.389,1.635-.12,3.242.083,4.783.601l.183-.476c-.337-.112-.678-.21-1.018-.293-1.03-.252-2.071-.376-3.105-.376-2.368,0-4.699.652-6.774,1.922M46.09,22.14c0,.418.333.758.743.758.097,0,.193-.02.283-.057l.165-.069.152.096c3.679,2.329,5.979,6.467,6.003,10.8.004.809.004,1.617.003,2.425v6.873h.499c.001-3.106.003-6.213-.009-9.317-.018-4.481-2.392-8.77-6.197-11.195l-.159-.102.003-.237c0-.393-.334-.733-.744-.733s-.743.34-.743.759M36.094,24.953l.205.471c1.376-.734,2.889-1.106,4.416-1.106,1.135,0,2.277.205,3.374.622,3.763,1.426,6.203,4.992,6.219,9.082,0,.148,0,.296,0,.444v.111c-.311.089-.54.373-.54.714,0,.412.333.746.745.746s.746-.334.746-.746c0-.312-.191-.577-.463-.689v-.606c.005-4.618-3.078-8.67-7.497-9.853-.856-.228-1.724-.342-2.587-.342-1.6,0-3.178.389-4.619,1.153M25.739,26.191c0,.157.046.307.132.432l.109.157-.075.174c-.49,1.147-.86,2.383-1.099,3.675-.171.923-.253,1.881-.25,2.927.005,1.947.004,3.895.004,5.843l-.002,4.085c0,1.425,0,2.849,0,4.273h.488c0-1.35,0-2.7,0-4.051v-9.923c0-1.048.06-1.902.185-2.69.222-1.385.609-2.717,1.152-3.959l.071-.164.175-.036c.343-.071.593-.382.593-.743,0-.418-.333-.758-.743-.758s-.742.34-.742.758M33.528,26.413c0,.135.039.261.103.37l-.132.137c-1.307,1.368-2.208,3.07-2.608,4.921-.156.724-.232,1.525-.232,2.45,0,1.601,0,3.202,0,4.804v4.275h.488l.002-1.87v-7.358c-.002-.866.099-1.705.299-2.495.426-1.685,1.292-3.229,2.504-4.463l.072-.074c.078.028.162.047.251.047.411,0,.745-.334.745-.746s-.334-.746-.745-.746-.746.334-.746.746M62.17,27.747c.455,1.806.687,3.676.688,5.561.003,3.658.003,7.315,0,10.974v.666s0,2.495,0,2.495l-.151.102c-.209.142-.334.378-.334.633,0,.419.333.759.743.759s.742-.34.742-.759c0-.263-.131-.504-.352-.644l-.16-.102v-3.145c0-2.354,0-4.71,0-7.064v-.52s0-.778,0-.778c0-.918,0-1.839-.002-2.757-.002-1.89-.239-3.773-.705-5.604l-.469.183ZM9.529,31.579c-.004.246-.007.491-.007.736-.002,2.256-.002,4.511-.002,6.766v4.935c.002,2.199.003,4.398-.002,6.597-.003,1.603.083,3.025.263,4.347.439,3.231,1.351,6.342,2.708,9.248.498,1.063,1.069,2.124,1.697,3.152l.016.024c4.143,6.753,10.575,11.668,18.111,13.837,1.586.456,3.266.787,4.993.984l.17.019.087.148c.136.23.374.369.637.369.216,0,.421-.097.563-.265l.041-.055c.09-.13.138-.282.138-.438,0-.42-.333-.76-.742-.76-.237,0-.463.118-.603.317l-.118.167-.203-.024c-1.43-.163-2.839-.425-4.188-.779l-1.218-.348-.179-.057c-7.177-2.263-13.29-7.104-17.215-13.632-1.132-1.884-2.068-3.892-2.783-5.968-.845-2.456-1.377-5.002-1.581-7.565-.041-.502-.07-1.039-.087-1.64l-.016-.551-.007-.943c-.011-2.107-.009-4.217-.007-6.325v-2.384s.001-2.347.001-2.347c-.002-2.069-.003-4.138.003-6.207,0-.409.008-.838.024-1.358h-.493ZM65.13,34.245c0,.263.132.505.355.645l.159.102.009,2.689v.227c.004,2.401,0,4.802-.005,7.201l-.002,1.017-.01,4.102c-.004,2.124-.286,4.255-.839,6.334-.94,3.536-2.586,6.758-4.895,9.582l.382.357c2.558-3.095,4.328-6.774,5.264-10.938.391-1.748.581-3.591.58-5.634-.003-3.997-.003-7.996-.003-11.993v-2.954l.154-.103c.212-.14.338-.377.338-.634,0-.418-.334-.758-.745-.758s-.742.34-.742.758M21.418,33.789v1.01c-.004,4.964-.006,9.93,0,14.894.006,6.12,2.758,11.78,7.55,15.53l.166.129-.04.206c-.009.048-.015.097-.015.149,0,.418.333.758.743.758s.742-.34.742-.758-.332-.759-.742-.759c-.056,0-.107.005-.156.016l-.155.032-.126-.097c-4.698-3.621-7.487-9.309-7.463-15.215.007-1.863.005-3.726.003-5.587l-.002-2.602v-2.684c0-1.674,0-3.348,0-5.022h-.505ZM15.329,37.488v3.992s0,2.8,0,2.8c0,1.866,0,3.732.001,5.599,0,.232,0,.463.007.695l.02.779.027.457c.028.469.066.889.114,1.286.25,2.077.735,4.094,1.443,5.998.248.665.527,1.329.831,1.974l.081.175-.105.162c-.083.126-.127.273-.127.424,0,.41.327.75.729.759l.05-.003c.396-.02.706-.352.706-.756,0-.37-.259-.683-.617-.747l-.175-.03-.075-.162c-1.603-3.401-2.417-7.058-2.42-10.87-.002-2.126-.002-4.252-.002-6.377l-.002-6.154h-.485ZM50.315,37.734c.004,3.736-.002,7.476-.012,11.212-.002.557-.059,1.149-.175,1.807-.586,3.335-3.019,6.223-6.196,7.358l-.168.06-.146-.103c-.124-.087-.271-.134-.42-.134-.41,0-.743.34-.743.759s.333.758.743.758c.355,0,.661-.258.728-.614l.037-.191.182-.068c3.246-1.196,5.708-4.054,6.426-7.459.147-.692.221-1.411.221-2.14l.002-11.245h-.48ZM27.523,37.798v6.305c0,1.728-.002,3.457,0,5.184.006,2.322.579,4.495,1.705,6.46.56.974,1.197,1.858,1.894,2.628l.123.135-.044.178c-.017.068-.024.131-.024.195,0,.418.333.758.742.758s.743-.34.743-.758-.333-.758-.743-.758c-.037,0-.075.004-.111.008l-.175.024-.121-.129c-1.446-1.541-2.498-3.426-3.047-5.451-.306-1.131-.454-2.334-.454-3.677,0-1.636,0-3.273,0-4.908v-2.454l.002-3.741h-.489ZM56.411,40.485c0,2.95-.005,5.9-.011,8.849-.001.669-.044,1.379-.126,2.106-.261,2.279-1.032,4.458-2.294,6.476-.7,1.12-1.536,2.151-2.487,3.065l-.082.079c-.102-.052-.216-.084-.338-.084-.412,0-.745.333-.745.745s.333.746.745.746.745-.334.745-.746c0-.108-.024-.21-.065-.303l.182-.175c2.482-2.373,4.07-5.371,4.72-8.912.167-.911.247-1.885.245-2.981-.002-2.955-.002-5.91-.002-8.866h-.488ZM17.621,42.591c0,.257.126.494.338.635l.153.103v.454c0,1.977-.003,3.955.003,5.932.014,5.272,1.645,10.031,4.846,14.144,3.424,4.399,7.926,7.213,13.381,8.363,1.13.238,2.307.381,3.504.426v-.518c-1.421-.058-2.853-.26-4.265-.603-6.768-1.646-12.452-6.523-15.205-13.046-1.036-2.453-1.619-5.009-1.734-7.596-.028-.627-.043-1.277-.044-1.932-.005-1.809-.005-3.618-.003-5.426v-.188l.159-.102c.221-.141.352-.382.352-.645,0-.418-.333-.758-.743-.758s-.742.34-.742.758M71.004,43.717c0,.249.121.482.321.624l.146.103v2.059c0,1.255,0,2.508,0,3.763,0,1.239-.058,2.451-.17,3.604-.176,1.806-.516,3.604-1.01,5.344-2.205,7.774-7.202,14.296-14.086,18.396l.207.475c.456-.273.909-.563,1.353-.86,6.652-4.482,11.088-10.719,13.182-18.536.431-1.603.719-3.284.885-5.139.073-.823.108-1.702.108-2.766,0-1.809-.002-3.62-.004-5.429v-.879s.173-.099.173-.099c.233-.134.378-.388.378-.661,0-.419-.332-.758-.742-.758s-.742.339-.742.758M52.992,45.213c0,.245.113.468.309.615l.14.103v3.032c0,1.208-.118,2.277-.358,3.267-1.598,6.59-8,10.826-14.58,9.641-1.629-.292-3.224-.934-4.637-1.861l-.224.51c1.392.896,2.983,1.515,4.732,1.845,6.776,1.269,13.43-3.066,15.153-9.866.271-1.068.408-2.143.408-3.195,0-1.046,0-2.092,0-3.137v-.196s.169-.1.169-.1c.228-.136.371-.387.371-.655,0-.42-.333-.76-.742-.76s-.742.34-.742.76M30.166,45.554c0,.258.126.495.339.636l.154.102v1.096c0,.457,0,.914-.003,1.37-.002,1.325.19,2.518.59,3.646,1.248,3.513,4.256,6.06,7.852,6.646.618.102,1.245.149,1.861.132l-.058-.517c-2.585.066-4.879-.849-6.814-2.738-1.923-1.876-2.91-4.219-2.936-6.962-.006-.827-.009-1.654-.009-2.481v-.189l.159-.102c.219-.139.349-.378.349-.641,0-.418-.332-.758-.742-.758s-.743.34-.743.758M12.038,48.905c0,.248.12.481.319.623l.145.103.013,2.648.007.213c.119,3.467.896,6.865,2.311,10.1,2.759,6.312,7.936,11.469,14.24,14.195l.183-.479c-6.257-2.705-11.218-7.657-13.992-13.976-1.074-2.45-1.782-5.08-2.103-7.815-.075-.643-.123-1.323-.145-2.078l-.008-.251-.011-2.533.164-.101c.226-.138.362-.381.362-.65,0-.419-.333-.759-.743-.759s-.742.34-.742.759M24.031,50.008c0,.286.155.545.405.675l.169.087.016.189c.176,2.133.767,4.159,1.755,6.022,2.463,4.636,6.301,7.532,11.409,8.61,4.28.704,8.164-.054,11.535-2.256l-.203-.467c-3.42,2.213-7.478,2.984-11.476,2.166-5.37-1.098-9.852-5.044-11.695-10.298-.426-1.213-.705-2.507-.826-3.844l-.016-.18.138-.116c.174-.145.274-.36.274-.588,0-.418-.332-.758-.742-.758s-.742.34-.742.758M62.838,50.591c-.058,1.484-.258,2.949-.595,4.362-2.205,9.212-9.929,16.071-19.22,17.068l-.191.021-.118-.152c-.143-.184-.355-.289-.582-.289-.41,0-.743.34-.743.758s.333.759.743.759c.272,0,.523-.153.653-.399l.085-.162.183-.02c4.046-.432,7.905-1.963,11.159-4.426l.724-.569.207-.174c2.069-1.745,3.802-3.821,5.151-6.17,1.424-2.483,2.367-5.186,2.802-8.036.129-.842.209-1.705.237-2.569h-.496ZM58.197,55.455c0,.167.053.325.152.458l.111.149-.063.174c-2.935,8.113-10.867,13.244-19.291,12.477-1.822-.166-3.587-.587-5.247-1.251-.64-.257-1.273-.553-1.889-.883l-.184.481c.348.185.71.366,1.079.534,1.748.796,3.609,1.321,5.534,1.56,8.944,1.111,17.359-4.126,20.469-12.745l.063-.175.181-.044c.336-.08.57-.383.57-.737,0-.419-.333-.759-.742-.759s-.743.34-.743.759M67.643,58.086c-1.337,5.188-3.941,9.612-7.74,13.151l-.578.532-.46.389c-.15.127-.302.253-.456.377-4.778,3.874-10.316,5.864-16.457,5.917-.372.003-.756.004-1.153.004-.526,0-1.077-.002-1.663-.008-1.257-.011-2.543-.125-3.824-.341l-.803-.148-.369-.08c-.317-.07-.633-.142-.949-.224-.3-.075-.597-.16-.895-.248l-.177-.053-.054-.176c-.098-.319-.382-.532-.71-.532-.409,0-.742.34-.742.758s.333.759.742.759c.181,0,.349-.064.485-.184l.142-.125.182.053c.486.142.973.271,1.449.38.024.005.059.013.095.022l.584.138.896.154c1.453.247,2.94.374,4.423.378h2.183c9.175,0,17.671-4.669,22.732-12.497,1.72-2.658,2.96-5.563,3.688-8.638l-.467-.184c-.033.143-.07.286-.106.428M19.434,64.078c3.513,5.477,8.874,9.374,15.129,10.989l.292.075.846.19c1.18.245,2.38.4,3.566.462,6.161.317,11.745-1.391,16.592-5.072l.148-.112.934-.75c.386-.326.728-.629,1.048-.928l.13-.122.175.037c.043.008.089.013.141.013.41,0,.744-.34.744-.758,0-.046-.007-.092-.015-.136l-.005-.03c-.076-.348-.374-.592-.724-.592-.41,0-.743.341-.743.759,0,.052.007.107.02.167l.042.191-.143.134c-.41.383-.79.719-1.165,1.028l-.333.276-.629.482c-4.823,3.618-10.746,5.345-16.669,4.867-1.841-.148-3.651-.497-5.381-1.035-5.593-1.742-10.415-5.454-13.621-10.474l-.376.338Z" fill="#fff" stroke-width="0"/><path d="M86.688,87.816c.176,0,.274-.105.274-.269s-.098-.269-.274-.269h-.17v.537h.17ZM88.355,87.848c0-.987-.693-1.719-1.687-1.719s-1.7.752-1.7,1.732.706,1.733,1.687,1.733c.49,0,.914-.19,1.216-.504h-.798l-.406-.627h-.15v.627h-.942v-2.458h1.17c.732,0,1.158.36,1.158.915,0,.346-.138.595-.392.745l.451.7c.248-.307.392-.7.392-1.144M88.97,87.848c0,1.301-1.014,2.321-2.314,2.321s-2.301-1.02-2.301-2.308,1.001-2.307,2.314-2.307,2.301.994,2.301,2.295" fill="#fff" stroke-width="0"/></g></svg>